#!OML:ASF F:\VICON\USERDATA\INSTALL\Justin_Nancy\Justin_Nancy.ASF
:FULLY-SPECIFIED
:DEGREES
1
root 0.991373 16.7391 -36.7625 11.8117 -0.68719 6.53182
lowerback 13.4976 -5.87533 -11.1005
upperback -3.74378 -9.31047 6.02766
thorax -8.88927 -3.70083 14.8694
lowerneck -13.7587 2.22864 -15.0937
upperneck 6.9609 5.07091 6.55636
head 3.75765 2.48411 4.79168
rclavicle 1.31198e-014 2.06736e-014
rhumerus -76.3927 22.2456 -89.5688
rradius 106.849
rwrist -13.2829
rhand -23.6875 37.1073
rfingers 7.12502
rthumb 2.77913 7.14563
lclavicle 1.31198e-014 2.06736e-014
lhumerus -34.3894 2.14323 97.8473
lradius 139.421
lwrist 29.153
lhand -15.7422 4.00876
lfingers 7.12502
lthumb 10.4488 33.7291
rfemur -57.2123 -5.07094 17.2427
rtibia 77.6302
rfoot -7.367 -1.63921
rtoes -11.4177
lfemur 4.46887 -2.83391 -30.9741
ltibia 30.3979
lfoot -2.8886 -1.57945
ltoes -30.0902
2
root 0.928323 16.7336 -36.1682 15.7023 -11.4321 3.76829
lowerback 7.89883 -2.48873 -12.1861
upperback -3.98888 -4.316 6.28071
thorax -7.43353 -1.30853 14.5776
lowerneck -14.6166 1.81179 -14.591
upperneck 7.58969 4.56678 6.39981
head 4.16021 2.22549 4.67237
rclavicle -2.78299e-015 -7.15625e-014
rhumerus -77.1865 20.3448 -88.905
rradius 107.391
rwrist -12.8356
rhand -24.4689 37.1279
rfingers 7.12502
rthumb 2.02448 7.15776
lclavicle -2.78299e-015 -7.15625e-014
lhumerus -34.0862 -0.107273 98.1489
lradius 141.014
lwrist 28.166
lhand -13.871 4.40902
lfingers 7.12502
lthumb 12.2535 34.0301
rfemur -63.2054 5.40569 18.1322
rtibia 72.1291
rfoot -5.26216 -0.378956
rtoes -13.1042
lfemur 1.2172 4.56457 -31.4857
ltibia 29.9916
lfoot 2.29 -0.349046
ltoes -29.6562
3
root 0.916558 16.7671 -35.5125 15.8553 -12.9152 3.6124
lowerback 6.55763 -1.19617 -10.7948
upperback -3.18624 -2.33884 4.82928
thorax -6.50319 -0.556375 11.6913
lowerneck -16.6704 0.584578 -12.7889
upperneck 8.11589 2.81586 6.60671
head 4.86242 1.44041 4.39049
rclavicle -1.25234e-014 1.66979e-014
rhumerus -76.6546 15.2223 -88.5575
rradius 107.789
rwrist -12.3003
rhand -24.2687 36.6991
rfingers 7.12502
rthumb 2.21784 6.73084
lclavicle -1.25234e-014 1.66979e-014
lhumerus -32.6984 -5.09985 97.4466
lradius 142.163
lwrist 28.2253
lhand -13.7521 4.89452
lfingers 7.12502
lthumb 12.3681 34.5087
rfemur -63.5059 6.77374 18.2531
rtibia 67.3186
rfoot -5.14898 0.267749
rtoes -15.4978
lfemur 4.19459 4.94319 -31.7894
ltibia 26.2416
lfoot 11.5168 0.786381
ltoes -24.4839
4
root 0.971821 16.8651 -34.8147 13.0873 -7.95272 5.4191
lowerback 10.1199 -3.86748 -11.1416
upperback -3.71995 -6.29259 5.84466
thorax -7.88945 -2.32845 13.8381
lowerneck -14.8525 2.05788 -14.4231
upperneck 8.05693 4.93173 6.08164
head 4.31672 2.37458 4.58296
rclavicle 1.55052e-014 3.81667e-014
rhumerus -79.0189 19.3547 -88.1249
rradius 108.394
rwrist -12.9983
rhand -22.6905 36.3205
rfingers 7.12502
rthumb 3.74194 6.37359
lclavicle 1.55052e-014 3.81667e-014
lhumerus -34.6821 -1.31057 98.4188
lradius 143.708
lwrist 27.3633
lhand -13.783 5.23843
lfingers 7.12502
lthumb 12.3384 34.8544
rfemur -59.6681 2.09603 17.7081
rtibia 62.3493
rfoot -5.7621 0.264664
rtoes -17.7418
lfemur 10.1248 0.00249559 -32.1479
ltibia 23.1908
lfoot 18.6041 1.03302
ltoes -30.2373
5
root 1.00586 16.9786 -34.1081 11.7789 -4.62751 6.0816
lowerback 10.8174 -4.49717 -8.77477
upperback -3.03878 -6.91184 4.71473
thorax -7.72204 -2.82903 11.2359
lowerneck -16.0987 1.23892 -13.482
upperneck 8.49238 3.7848 6.417
head 4.78258 1.8618 4.50773
rclavicle -9.40251e-014 -6.36111e-015
rhumerus -78.8248 15.8579 -87.8237
rradius 108.719
rwrist -13.1565
rhand -21.7388 36.6678
rfingers 7.12502
rthumb 4.66102 6.73908
lclavicle -9.40251e-014 -6.36111e-015
lhumerus -34.3026 -4.26202 97.8281
lradius 143.933
lwrist 27.7883
lhand -13.4206 5.12288
lfingers 7.12502
lthumb 12.6877 34.7175
rfemur -56.9678 -0.725401 17.5165
rtibia 57.1501
rfoot -5.60355 0.757607
rtoes -18.5011
lfemur 14.8198 -3.47436 -32.2
ltibia 19.6246
lfoot 26.5726 -0.576864
ltoes -19.7201
6
root 1.01846 17.0571 -33.4378 11.6698 -5.28405 6.18249
lowerback 10.4624 -4.54451 -8.46155
upperback -3.05665 -6.90757 4.66673
thorax -7.57715 -2.85556 10.955
lowerneck -16.3021 1.36112 -14.004
upperneck 8.76638 4.0479 6.7621
head 4.85576 1.9919 4.7315
rclavicle -1.21457e-013 3.97569e-014
rhumerus -79.4014 15.8016 -87.5729
rradius 109.115
rwrist -13.4517
rhand -21.6856 36.8057
rfingers 7.12502
rthumb 4.71239 6.87813
lclavicle -1.21457e-013 3.97569e-014
lhumerus -34.7977 -3.91632 97.7974
lradius 143.886
lwrist 28.0061
lhand -13.1489 4.46369
lfingers 7.12502
lthumb 12.9496 34.0418
rfemur -56.0927 -0.187993 17.3917
rtibia 51.7694
rfoot -4.22918 2.25219
rtoes -17.9711
lfemur 17.4681 -3.78965 -32.8388
ltibia 16.5843
lfoot 30.3576 -3.90713
ltoes -17.8457
7
root 1.02756 17.1353 -32.7767 11.5724 -5.77912 6.12744
lowerback 11.076 -5.10959 -9.01822
upperback -3.8926 -7.75479 5.59261
thorax -8.45706 -3.11327 12.5949
lowerneck -15.1536 2.39889 -15.2653
upperneck 8.69108 5.5471 6.59094
head 4.459 2.66463 4.93805
rclavicle -5.56597e-015 -3.97569e-014
rhumerus -81.0718 18.5073 -87.2409
rradius 109.541
rwrist -14.0307
rhand -22.121 36.8885
rfingers 7.12502
rthumb 4.29191 6.95195
lclavicle -5.56597e-015 -3.97569e-014
lhumerus -36.6476 -0.909942 98.5619
lradius 143.739
lwrist 27.9544
lhand -12.5948 3.94875
lfingers 7.12502
lthumb 13.4837 33.4923
rfemur -55.0148 0.0766156 17.6342
rtibia 46.354
rfoot -2.51985 3.64836
rtoes -16.6684
lfemur 19.2774 -3.95567 -33.1488
ltibia 15.1118
lfoot 34.6675 -7.01221
ltoes -7.3341
